# Blender 5.0.1
# www.blender.org
o head.001
v -0.250000 1.500000 -0.261299
v -0.250000 1.500000 -0.261299
v -0.250000 1.500000 -0.261299
v -0.250000 2.000000 -0.261299
v -0.250000 2.000000 -0.261299
v -0.250000 2.000000 -0.261299
v 0.250000 1.500000 -0.261299
v 0.250000 1.500000 -0.261299
v 0.250000 1.500000 -0.261299
v 0.250000 2.000000 -0.261299
v 0.250000 2.000000 -0.261299
v 0.250000 2.000000 -0.261299
v -0.250000 1.500000 0.238701
v -0.250000 1.500000 0.238701
v -0.250000 1.500000 0.238701
v -0.250000 2.000000 0.238701
v -0.250000 2.000000 0.238701
v -0.250000 2.000000 0.238701
v 0.250000 1.500000 0.238701
v 0.250000 1.500000 0.238701
v 0.250000 1.500000 0.238701
v 0.250000 2.000000 0.238701
v 0.250000 2.000000 0.238701
v 0.250000 2.000000 0.238701
vn -0.0000 1.0000 -0.0000
vn -0.0000 -1.0000 -0.0000
vn -1.0000 -0.0000 -0.0000
vn -0.0000 -0.0000 -1.0000
vn -0.0000 -0.0000 1.0000
vn 1.0000 -0.0000 -0.0000
vt 0.250000 1.000000
vt 0.125000 1.000000
vt 0.125000 0.750000
vt 0.250000 0.750000
vt 0.375000 1.000000
vt 0.375000 0.750000
vt 0.000000 0.750000
vt 0.000000 0.500000
vt 0.125000 0.500000
vt 0.375000 0.500000
vt 0.500000 0.500000
vt 0.500000 0.750000
vt 0.250000 0.500000
s 1
f 17/1/1 23/2/1 11/3/1
f 17/1/1 11/3/1 5/4/1
f 2/5/2 8/1/2 20/4/2
f 2/5/2 20/4/2 14/6/2
f 4/7/3 1/8/3 13/9/3
f 4/7/3 13/9/3 16/3/3
f 12/6/4 9/10/4 3/11/4
f 12/6/4 3/11/4 6/12/4
f 15/9/5 21/13/5 24/4/5
f 15/9/5 24/4/5 18/3/5
f 19/13/6 7/10/6 10/6/6
f 19/13/6 10/6/6 22/4/6
o left_arm.001
v 0.250000 1.500000 -0.136301
v 0.250000 1.500000 -0.136301
v 0.250000 1.500000 -0.136301
v 0.250000 1.500000 0.113699
v 0.250000 1.500000 0.113699
v 0.250000 1.500000 0.113699
v 0.500000 1.500000 -0.136301
v 0.500000 1.500000 -0.136301
v 0.500000 1.500000 -0.136301
v 0.500000 1.500000 0.113699
v 0.500000 1.500000 0.113699
v 0.500000 1.500000 0.113699
v 0.250000 0.750000 -0.136301
v 0.250000 0.750000 -0.136301
v 0.250000 0.750000 -0.136301
v 0.250000 0.750000 0.113699
v 0.250000 0.750000 0.113699
v 0.250000 0.750000 0.113699
v 0.500000 0.750000 -0.136301
v 0.500000 0.750000 -0.136301
v 0.500000 0.750000 -0.136301
v 0.500000 0.750000 0.113699
v 0.500000 0.750000 0.113699
v 0.500000 0.750000 0.113699
vn -0.0000 1.0000 -0.0000
vn 1.0000 -0.0000 -0.0000
vn -0.0000 -1.0000 -0.0000
vn -1.0000 -0.0000 -0.0000
vn -0.0000 -0.0000 -1.0000
vn -0.0000 -0.0000 1.0000
vt 0.750000 0.500000
vt 0.687500 0.500000
vt 0.687500 0.375000
vt 0.750000 0.375000
vt 0.812500 0.375000
vt 0.812500 0.000000
vt 0.750000 0.000000
vt 0.812500 0.500000
vt 0.875000 0.000000
vt 0.875000 0.375000
vt 0.687500 0.000000
vt 0.625000 0.000000
vt 0.625000 0.375000
s 1
f 26/14/7 29/15/7 35/16/7
f 26/14/7 35/16/7 32/17/7
f 31/17/8 34/18/8 46/19/8
f 31/17/8 46/19/8 43/20/8
f 44/14/9 47/17/9 41/18/9
f 44/14/9 41/18/9 38/21/9
f 37/22/10 40/19/10 28/18/10
f 37/22/10 28/18/10 25/23/10
f 33/16/11 45/24/11 39/25/11
f 33/16/11 39/25/11 27/26/11
f 48/24/12 36/16/12 30/17/12
f 48/24/12 30/17/12 42/20/12
o left_leg.001
v 0.000000 0.750000 -0.136301
v 0.000000 0.750000 -0.136301
v 0.000000 0.750000 -0.136301
v 0.000000 0.750000 0.113699
v 0.000000 0.750000 0.113699
v 0.000000 0.750000 0.113699
v 0.250000 0.750000 -0.136301
v 0.250000 0.750000 -0.136301
v 0.250000 0.750000 -0.136301
v 0.250000 0.750000 0.113699
v 0.250000 0.750000 0.113699
v 0.250000 0.750000 0.113699
v 0.000000 0.000000 -0.136301
v 0.000000 0.000000 -0.136301
v 0.000000 0.000000 -0.136301
v 0.000000 0.000000 0.113699
v 0.000000 0.000000 0.113699
v 0.000000 0.000000 0.113699
v 0.250000 0.000000 -0.136301
v 0.250000 0.000000 -0.136301
v 0.250000 0.000000 -0.136301
v 0.250000 0.000000 0.113699
v 0.250000 0.000000 0.113699
v 0.250000 0.000000 0.113699
vn -0.0000 1.0000 -0.0000
vn 1.0000 -0.0000 -0.0000
vn -0.0000 -1.0000 -0.0000
vn -1.0000 -0.0000 -0.0000
vn -0.0000 -0.0000 -1.0000
vn -0.0000 -0.0000 1.0000
vt 0.125000 0.375000
vt 0.125000 0.500000
vt 0.062500 0.500000
vt 0.062500 0.375000
vt 0.000000 0.375000
vt 0.000000 0.000000
vt 0.062500 0.000000
vt 0.187500 0.375000
vt 0.187500 0.500000
vt 0.187500 0.000000
vt 0.125000 0.000000
vt 0.250000 0.000000
vt 0.250000 0.375000
s 1
f 50/27/13 53/28/13 59/29/13
f 50/27/13 59/29/13 56/30/13
f 55/30/14 58/31/14 70/32/14
f 55/30/14 70/32/14 67/33/14
f 68/28/15 71/27/15 65/34/15
f 68/28/15 65/34/15 62/35/15
f 61/36/16 64/37/16 52/27/16
f 61/36/16 52/27/16 49/34/16
f 57/34/17 69/36/17 63/38/17
f 57/34/17 63/38/17 51/39/17
f 72/37/18 60/27/18 54/30/18
f 72/37/18 54/30/18 66/33/18
o right_arm.001
v -0.500000 1.500000 -0.136301
v -0.500000 1.500000 -0.136301
v -0.500000 1.500000 -0.136301
v -0.500000 1.500000 0.113699
v -0.500000 1.500000 0.113699
v -0.500000 1.500000 0.113699
v -0.250000 1.500000 -0.136301
v -0.250000 1.500000 -0.136301
v -0.250000 1.500000 -0.136301
v -0.250000 1.500000 0.113699
v -0.250000 1.500000 0.113699
v -0.250000 1.500000 0.113699
v -0.500000 0.750000 -0.136301
v -0.500000 0.750000 -0.136301
v -0.500000 0.750000 -0.136301
v -0.500000 0.750000 0.113699
v -0.500000 0.750000 0.113699
v -0.500000 0.750000 0.113699
v -0.250000 0.750000 -0.136301
v -0.250000 0.750000 -0.136301
v -0.250000 0.750000 -0.136301
v -0.250000 0.750000 0.113699
v -0.250000 0.750000 0.113699
v -0.250000 0.750000 0.113699
vn -0.0000 1.0000 -0.0000
vn 1.0000 -0.0000 -0.0000
vn -0.0000 -1.0000 -0.0000
vn -1.0000 -0.0000 -0.0000
vn -0.0000 -0.0000 -1.0000
vn -0.0000 -0.0000 1.0000
vt 0.687500 0.500000
vt 0.687500 0.375000
vt 0.750000 0.375000
vt 0.750000 0.500000
vt 0.812500 0.375000
vt 0.750000 0.000000
vt 0.812500 0.000000
vt 0.812500 0.500000
vt 0.625000 0.000000
vt 0.687500 0.000000
vt 0.625000 0.375000
vt 0.875000 0.000000
vt 0.875000 0.375000
s 1
f 74/40/19 77/41/19 83/42/19
f 74/40/19 83/42/19 80/43/19
f 79/44/20 82/42/20 94/45/20
f 79/44/20 94/45/20 91/46/20
f 92/47/21 95/44/21 89/42/21
f 92/47/21 89/42/21 86/43/21
f 85/48/22 88/49/22 76/41/22
f 85/48/22 76/41/22 73/50/22
f 81/44/23 93/46/23 87/51/23
f 81/44/23 87/51/23 75/52/23
f 96/45/24 84/42/24 78/41/24
f 96/45/24 78/41/24 90/49/24
o right_leg.001
v -0.250000 0.750000 -0.136301
v -0.250000 0.750000 -0.136301
v -0.250000 0.750000 -0.136301
v -0.250000 0.750000 0.113699
v -0.250000 0.750000 0.113699
v -0.250000 0.750000 0.113699
v 0.000000 0.750000 -0.136301
v 0.000000 0.750000 -0.136301
v 0.000000 0.750000 -0.136301
v 0.000000 0.750000 0.113699
v 0.000000 0.750000 0.113699
v 0.000000 0.750000 0.113699
v -0.250000 0.000000 -0.136301
v -0.250000 0.000000 -0.136301
v -0.250000 0.000000 -0.136301
v -0.250000 0.000000 0.113699
v -0.250000 0.000000 0.113699
v -0.250000 0.000000 0.113699
v 0.000000 0.000000 -0.136301
v 0.000000 0.000000 -0.136301
v 0.000000 0.000000 -0.136301
v 0.000000 0.000000 0.113699
v 0.000000 0.000000 0.113699
v 0.000000 0.000000 0.113699
vn -0.0000 1.0000 -0.0000
vn 1.0000 -0.0000 -0.0000
vn -0.0000 -1.0000 -0.0000
vn -1.0000 -0.0000 -0.0000
vn -0.0000 -0.0000 -1.0000
vn -0.0000 -0.0000 1.0000
vt 0.125000 0.375000
vt 0.125000 0.500000
vt 0.062500 0.500000
vt 0.062500 0.375000
vt 0.187500 0.375000
vt 0.125000 0.000000
vt 0.187500 0.000000
vt 0.187500 0.500000
vt 0.000000 0.000000
vt 0.062500 0.000000
vt 0.000000 0.375000
vt 0.250000 0.000000
vt 0.250000 0.375000
s 1
f 98/53/25 101/54/25 107/55/25
f 98/53/25 107/55/25 104/56/25
f 103/57/26 106/53/26 118/58/26
f 103/57/26 118/58/26 115/59/26
f 116/60/27 119/57/27 113/53/27
f 116/60/27 113/53/27 110/54/27
f 109/61/28 112/62/28 100/56/28
f 109/61/28 100/56/28 97/63/28
f 105/57/29 117/59/29 111/64/29
f 105/57/29 111/64/29 99/65/29
f 120/58/30 108/53/30 102/56/30
f 120/58/30 102/56/30 114/62/30
o torso.001
v -0.250000 0.750000 -0.136301
v -0.250000 0.750000 -0.136301
v -0.250000 0.750000 -0.136301
v -0.250000 1.500000 -0.136301
v -0.250000 1.500000 -0.136301
v -0.250000 1.500000 -0.136301
v 0.250000 0.750000 -0.136301
v 0.250000 0.750000 -0.136301
v 0.250000 0.750000 -0.136301
v 0.250000 1.500000 -0.136301
v 0.250000 1.500000 -0.136301
v 0.250000 1.500000 -0.136301
v -0.250000 0.750000 0.113699
v -0.250000 0.750000 0.113699
v -0.250000 0.750000 0.113699
v -0.250000 1.500000 0.113699
v -0.250000 1.500000 0.113699
v -0.250000 1.500000 0.113699
v 0.250000 0.750000 0.113699
v 0.250000 0.750000 0.113699
v 0.250000 0.750000 0.113699
v 0.250000 1.500000 0.113699
v 0.250000 1.500000 0.113699
v 0.250000 1.500000 0.113699
vn -0.0000 1.0000 -0.0000
vn -0.0000 -1.0000 -0.0000
vn -1.0000 -0.0000 -0.0000
vn -0.0000 -0.0000 -1.0000
vn -0.0000 -0.0000 1.0000
vn 1.0000 -0.0000 -0.0000
vt 0.312500 0.375000
vt 0.437500 0.375000
vt 0.437500 0.500000
vt 0.312500 0.500000
vt 0.562500 0.500000
vt 0.562500 0.375000
vt 0.250000 0.375000
vt 0.250000 0.000000
vt 0.312500 0.000000
vt 0.500000 0.375000
vt 0.500000 0.000000
vt 0.625000 0.000000
vt 0.625000 0.375000
vt 0.437500 0.000000
s 1
f 137/66/31 143/67/31 131/68/31
f 137/66/31 131/68/31 125/69/31
f 122/68/32 128/70/32 140/71/32
f 122/68/32 140/71/32 134/67/32
f 124/72/33 121/73/33 133/74/33
f 124/72/33 133/74/33 136/66/33
f 132/75/34 129/76/34 123/77/34
f 132/75/34 123/77/34 126/78/34
f 135/74/35 141/79/35 144/67/35
f 135/74/35 144/67/35 138/66/35
f 139/79/36 127/76/36 130/75/36
f 139/79/36 130/75/36 142/67/36
