# Blender 5.0.1
# www.blender.org
o Head.001
v 0.250000 2.000000 0.250000
v 0.250000 2.000000 -0.250000
v 0.250000 1.500000 0.250000
v 0.250000 1.500000 -0.250000
v -0.250000 2.000000 -0.250000
v -0.250000 2.000000 0.250000
v -0.250000 1.500000 -0.250000
v -0.250000 1.500000 0.250000
v -0.250000 2.000000 -0.250000
v 0.250000 2.000000 -0.250000
v -0.250000 2.000000 0.250000
v 0.250000 2.000000 0.250000
v -0.250000 1.500000 0.250000
v 0.250000 1.500000 0.250000
v -0.250000 1.500000 -0.250000
v 0.250000 1.500000 -0.250000
v -0.250000 2.000000 0.250000
v 0.250000 2.000000 0.250000
v -0.250000 1.500000 0.250000
v 0.250000 1.500000 0.250000
v 0.250000 2.000000 -0.250000
v -0.250000 2.000000 -0.250000
v 0.250000 1.500000 -0.250000
v -0.250000 1.500000 -0.250000
vn 1.0000 -0.0000 -0.0000
vn -1.0000 -0.0000 -0.0000
vn -0.0000 1.0000 -0.0000
vn -0.0000 -1.0000 -0.0000
vn -0.0000 -0.0000 1.0000
vn -0.0000 -0.0000 -1.0000
vt 0.000244 0.874756
vt 0.000244 0.750244
vt 0.124756 0.874756
vt 0.124756 0.750244
vt 0.250244 0.874756
vt 0.250244 0.750244
vt 0.374756 0.874756
vt 0.374756 0.750244
vt 0.249756 0.875244
vt 0.249756 0.999756
vt 0.125244 0.875244
vt 0.125244 0.999756
vt 0.374756 0.999756
vt 0.374756 0.875244
vt 0.250244 0.999756
vt 0.250244 0.875244
vt 0.375244 0.874756
vt 0.375244 0.750244
vt 0.499756 0.874756
vt 0.499756 0.750244
vt 0.125244 0.874756
vt 0.125244 0.750244
vt 0.249756 0.874756
vt 0.249756 0.750244
s 0
f 1/1/1 3/2/1 2/3/1
f 3/2/1 4/4/1 2/3/1
f 5/5/2 7/6/2 6/7/2
f 7/6/2 8/8/2 6/7/2
f 9/9/3 11/10/3 10/11/3
f 11/10/3 12/12/3 10/11/3
f 13/13/4 15/14/4 14/15/4
f 15/14/4 16/16/4 14/15/4
f 17/17/5 19/18/5 18/19/5
f 19/18/5 20/20/5 18/19/5
f 21/21/6 23/22/6 22/23/6
f 23/22/6 24/24/6 22/23/6
o Body.001
v 0.250000 1.500000 0.125000
v 0.250000 1.500000 -0.125000
v 0.250000 0.750000 0.125000
v 0.250000 0.750000 -0.125000
v -0.250000 1.500000 -0.125000
v -0.250000 1.500000 0.125000
v -0.250000 0.750000 -0.125000
v -0.250000 0.750000 0.125000
v -0.250000 1.500000 -0.125000
v 0.250000 1.500000 -0.125000
v -0.250000 1.500000 0.125000
v 0.250000 1.500000 0.125000
v -0.250000 0.750000 0.125000
v 0.250000 0.750000 0.125000
v -0.250000 0.750000 -0.125000
v 0.250000 0.750000 -0.125000
v -0.250000 1.500000 0.125000
v 0.250000 1.500000 0.125000
v -0.250000 0.750000 0.125000
v 0.250000 0.750000 0.125000
v 0.250000 1.500000 -0.125000
v -0.250000 1.500000 -0.125000
v 0.250000 0.750000 -0.125000
v -0.250000 0.750000 -0.125000
vn 1.0000 -0.0000 -0.0000
vn -1.0000 -0.0000 -0.0000
vn -0.0000 1.0000 -0.0000
vn -0.0000 -1.0000 -0.0000
vn -0.0000 -0.0000 1.0000
vn -0.0000 -0.0000 -1.0000
vt 0.250244 0.687256
vt 0.250244 0.500244
vt 0.312256 0.687256
vt 0.312256 0.500244
vt 0.437744 0.687256
vt 0.437744 0.500244
vt 0.499756 0.687256
vt 0.499756 0.500244
vt 0.437256 0.687744
vt 0.437256 0.749756
vt 0.312744 0.687744
vt 0.312744 0.749756
vt 0.562256 0.749756
vt 0.562256 0.687744
vt 0.437744 0.749756
vt 0.437744 0.687744
vt 0.500244 0.687256
vt 0.500244 0.500244
vt 0.624756 0.687256
vt 0.624756 0.500244
vt 0.312744 0.687256
vt 0.312744 0.500244
vt 0.437256 0.687256
vt 0.437256 0.500244
s 0
f 25/25/7 27/26/7 26/27/7
f 27/26/7 28/28/7 26/27/7
f 29/29/8 31/30/8 30/31/8
f 31/30/8 32/32/8 30/31/8
f 33/33/9 35/34/9 34/35/9
f 35/34/9 36/36/9 34/35/9
f 37/37/10 39/38/10 38/39/10
f 39/38/10 40/40/10 38/39/10
f 41/41/11 43/42/11 42/43/11
f 43/42/11 44/44/11 42/43/11
f 45/45/12 47/46/12 46/47/12
f 47/46/12 48/48/12 46/47/12
o Right_Arm.001
v 0.437500 1.500000 0.125000
v 0.437500 1.500000 -0.125000
v 0.437500 0.750000 0.125000
v 0.437500 0.750000 -0.125000
v 0.250000 1.500000 -0.125000
v 0.250000 1.500000 0.125000
v 0.250000 0.750000 -0.125000
v 0.250000 0.750000 0.125000
v 0.250000 1.500000 -0.125000
v 0.437500 1.500000 -0.125000
v 0.250000 1.500000 0.125000
v 0.437500 1.500000 0.125000
v 0.250000 0.750000 0.125000
v 0.437500 0.750000 0.125000
v 0.250000 0.750000 -0.125000
v 0.437500 0.750000 -0.125000
v 0.250000 1.500000 0.125000
v 0.437500 1.500000 0.125000
v 0.250000 0.750000 0.125000
v 0.437500 0.750000 0.125000
v 0.437500 1.500000 -0.125000
v 0.250000 1.500000 -0.125000
v 0.437500 0.750000 -0.125000
v 0.250000 0.750000 -0.125000
vn 1.0000 -0.0000 -0.0000
vn -1.0000 -0.0000 -0.0000
vn -0.0000 1.0000 -0.0000
vn -0.0000 -1.0000 -0.0000
vn -0.0000 -0.0000 1.0000
vn -0.0000 -0.0000 -1.0000
vt 0.625244 0.687256
vt 0.625244 0.500244
vt 0.687256 0.687256
vt 0.687256 0.500244
vt 0.734619 0.687256
vt 0.734619 0.500244
vt 0.796631 0.687256
vt 0.796631 0.500244
vt 0.734131 0.687744
vt 0.734131 0.749756
vt 0.687744 0.687744
vt 0.687744 0.749756
vt 0.781006 0.749756
vt 0.781006 0.687744
vt 0.734619 0.749756
vt 0.734619 0.687744
vt 0.797119 0.687256
vt 0.797119 0.500244
vt 0.843506 0.687256
vt 0.843506 0.500244
vt 0.687744 0.687256
vt 0.687744 0.500244
vt 0.734131 0.687256
vt 0.734131 0.500244
s 0
f 49/49/13 51/50/13 50/51/13
f 51/50/13 52/52/13 50/51/13
f 53/53/14 55/54/14 54/55/14
f 55/54/14 56/56/14 54/55/14
f 57/57/15 59/58/15 58/59/15
f 59/58/15 60/60/15 58/59/15
f 61/61/16 63/62/16 62/63/16
f 63/62/16 64/64/16 62/63/16
f 65/65/17 67/66/17 66/67/17
f 67/66/17 68/68/17 66/67/17
f 69/69/18 71/70/18 70/71/18
f 71/70/18 72/72/18 70/71/18
o Left_Arm.001
v -0.250000 1.500000 0.125000
v -0.250000 1.500000 -0.125000
v -0.250000 0.750000 0.125000
v -0.250000 0.750000 -0.125000
v -0.437500 1.500000 -0.125000
v -0.437500 1.500000 0.125000
v -0.437500 0.750000 -0.125000
v -0.437500 0.750000 0.125000
v -0.437500 1.500000 -0.125000
v -0.250000 1.500000 -0.125000
v -0.437500 1.500000 0.125000
v -0.250000 1.500000 0.125000
v -0.437500 0.750000 0.125000
v -0.250000 0.750000 0.125000
v -0.437500 0.750000 -0.125000
v -0.250000 0.750000 -0.125000
v -0.437500 1.500000 0.125000
v -0.250000 1.500000 0.125000
v -0.437500 0.750000 0.125000
v -0.250000 0.750000 0.125000
v -0.250000 1.500000 -0.125000
v -0.437500 1.500000 -0.125000
v -0.250000 0.750000 -0.125000
v -0.437500 0.750000 -0.125000
vn 1.0000 -0.0000 -0.0000
vn -1.0000 -0.0000 -0.0000
vn -0.0000 1.0000 -0.0000
vn -0.0000 -1.0000 -0.0000
vn -0.0000 -0.0000 1.0000
vn -0.0000 -0.0000 -1.0000
vt 0.500244 0.187256
vt 0.500244 0.000244
vt 0.562256 0.187256
vt 0.562256 0.000244
vt 0.609619 0.187256
vt 0.609619 0.000244
vt 0.671631 0.187256
vt 0.671631 0.000244
vt 0.609131 0.187744
vt 0.609131 0.249756
vt 0.562744 0.187744
vt 0.562744 0.249756
vt 0.656006 0.249756
vt 0.656006 0.187744
vt 0.609619 0.249756
vt 0.609619 0.187744
vt 0.672119 0.187256
vt 0.672119 0.000244
vt 0.718506 0.187256
vt 0.718506 0.000244
vt 0.562744 0.187256
vt 0.562744 0.000244
vt 0.609131 0.187256
vt 0.609131 0.000244
s 0
f 73/73/19 75/74/19 74/75/19
f 75/74/19 76/76/19 74/75/19
f 77/77/20 79/78/20 78/79/20
f 79/78/20 80/80/20 78/79/20
f 81/81/21 83/82/21 82/83/21
f 83/82/21 84/84/21 82/83/21
f 85/85/22 87/86/22 86/87/22
f 87/86/22 88/88/22 86/87/22
f 89/89/23 91/90/23 90/91/23
f 91/90/23 92/92/23 90/91/23
f 93/93/24 95/94/24 94/95/24
f 95/94/24 96/96/24 94/95/24
o Right_Leg.001
v 0.243750 0.750000 0.125000
v 0.243750 0.750000 -0.125000
v 0.243750 0.000000 0.125000
v 0.243750 0.000000 -0.125000
v -0.006250 0.750000 -0.125000
v -0.006250 0.750000 0.125000
v -0.006250 0.000000 -0.125000
v -0.006250 0.000000 0.125000
v -0.006250 0.750000 -0.125000
v 0.243750 0.750000 -0.125000
v -0.006250 0.750000 0.125000
v 0.243750 0.750000 0.125000
v -0.006250 0.000000 0.125000
v 0.243750 0.000000 0.125000
v -0.006250 0.000000 -0.125000
v 0.243750 0.000000 -0.125000
v -0.006250 0.750000 0.125000
v 0.243750 0.750000 0.125000
v -0.006250 0.000000 0.125000
v 0.243750 0.000000 0.125000
v 0.243750 0.750000 -0.125000
v -0.006250 0.750000 -0.125000
v 0.243750 0.000000 -0.125000
v -0.006250 0.000000 -0.125000
vn 1.0000 -0.0000 -0.0000
vn -1.0000 -0.0000 -0.0000
vn -0.0000 1.0000 -0.0000
vn -0.0000 -1.0000 -0.0000
vn -0.0000 -0.0000 1.0000
vn -0.0000 -0.0000 -1.0000
vt 0.000244 0.687256
vt 0.000244 0.500244
vt 0.062256 0.687256
vt 0.062256 0.500244
vt 0.125244 0.687256
vt 0.125244 0.500244
vt 0.187256 0.687256
vt 0.187256 0.500244
vt 0.124756 0.687744
vt 0.124756 0.749756
vt 0.062744 0.687744
vt 0.062744 0.749756
vt 0.187256 0.749756
vt 0.187256 0.687744
vt 0.125244 0.749756
vt 0.125244 0.687744
vt 0.187744 0.687256
vt 0.187744 0.500244
vt 0.249756 0.687256
vt 0.249756 0.500244
vt 0.062744 0.687256
vt 0.062744 0.500244
vt 0.124756 0.687256
vt 0.124756 0.500244
s 0
f 97/97/25 99/98/25 98/99/25
f 99/98/25 100/100/25 98/99/25
f 101/101/26 103/102/26 102/103/26
f 103/102/26 104/104/26 102/103/26
f 105/105/27 107/106/27 106/107/27
f 107/106/27 108/108/27 106/107/27
f 109/109/28 111/110/28 110/111/28
f 111/110/28 112/112/28 110/111/28
f 113/113/29 115/114/29 114/115/29
f 115/114/29 116/116/29 114/115/29
f 117/117/30 119/118/30 118/119/30
f 119/118/30 120/120/30 118/119/30
o Left_Leg.001
v 0.006250 0.750000 0.125000
v 0.006250 0.750000 -0.125000
v 0.006250 0.000000 0.125000
v 0.006250 0.000000 -0.125000
v -0.243750 0.750000 -0.125000
v -0.243750 0.750000 0.125000
v -0.243750 0.000000 -0.125000
v -0.243750 0.000000 0.125000
v -0.243750 0.750000 -0.125000
v 0.006250 0.750000 -0.125000
v -0.243750 0.750000 0.125000
v 0.006250 0.750000 0.125000
v -0.243750 0.000000 0.125000
v 0.006250 0.000000 0.125000
v -0.243750 0.000000 -0.125000
v 0.006250 0.000000 -0.125000
v -0.243750 0.750000 0.125000
v 0.006250 0.750000 0.125000
v -0.243750 0.000000 0.125000
v 0.006250 0.000000 0.125000
v 0.006250 0.750000 -0.125000
v -0.243750 0.750000 -0.125000
v 0.006250 0.000000 -0.125000
v -0.243750 0.000000 -0.125000
vn 1.0000 -0.0000 -0.0000
vn -1.0000 -0.0000 -0.0000
vn -0.0000 1.0000 -0.0000
vn -0.0000 -1.0000 -0.0000
vn -0.0000 -0.0000 1.0000
vn -0.0000 -0.0000 -1.0000
vt 0.250244 0.187256
vt 0.250244 0.000244
vt 0.312256 0.187256
vt 0.312256 0.000244
vt 0.375244 0.187256
vt 0.375244 0.000244
vt 0.437256 0.187256
vt 0.437256 0.000244
vt 0.374756 0.187744
vt 0.374756 0.249756
vt 0.312744 0.187744
vt 0.312744 0.249756
vt 0.437256 0.249756
vt 0.437256 0.187744
vt 0.375244 0.249756
vt 0.375244 0.187744
vt 0.437744 0.187256
vt 0.437744 0.000244
vt 0.499756 0.187256
vt 0.499756 0.000244
vt 0.312744 0.187256
vt 0.312744 0.000244
vt 0.374756 0.187256
vt 0.374756 0.000244
s 0
f 121/121/31 123/122/31 122/123/31
f 123/122/31 124/124/31 122/123/31
f 125/125/32 127/126/32 126/127/32
f 127/126/32 128/128/32 126/127/32
f 129/129/33 131/130/33 130/131/33
f 131/130/33 132/132/33 130/131/33
f 133/133/34 135/134/34 134/135/34
f 135/134/34 136/136/34 134/135/34
f 137/137/35 139/138/35 138/139/35
f 139/138/35 140/140/35 138/139/35
f 141/141/36 143/142/36 142/143/36
f 143/142/36 144/144/36 142/143/36
